<svg viewBox="0 0 956.28023 726.02815" xmlns="http://www.w3.org/2000/svg" xmlns:xlink="http://www.w3.org/1999/xlink"><linearGradient id="a" gradientUnits="userSpaceOnUse" x1="153.91946" x2="592.91501" y1="347.15967" y2="74.12585"><stop offset="0" stop-color="#1f0330"/><stop offset="1" stop-color="#55307b"/></linearGradient><linearGradient id="b" x1="232.32479" x2="671.32034" xlink:href="#a" y1="476.44298" y2="203.40916"/><linearGradient id="c" x1="275.4964" x2="714.49195" xlink:href="#a" y1="542.63631" y2="269.6025"/><linearGradient id="d" gradientUnits="userSpaceOnUse" x1="375.44329" x2="344.63068" y1="483.3639" y2="483.3639"><stop offset="0" stop-color="#00aa8e"/><stop offset="1" stop-color="#086654"/></linearGradient><linearGradient id="e" x1="344.60523" x2="657.05592" xlink:href="#a" y1="490.59634" y2="296.26726"/><g transform="translate(-22.01009 -15.13763)"><path d="m66.02881 445.395c-33.07557 48.907-23.137 119.47932 15.7963 163.865s101.31994 63.80871 160.19583 59.39051c124.88092-9.37138 232.12314-113.5596 357.11126-105.74706 43.44078 2.71532 84.7 19.03745 125.36966 34.544s82.63057 30.58455 126.15614 30.62324 89.55411-17.82837 112.04764-55.09115c16.65816-27.5959 18.37278-62.03918 12.54544-93.742-14.31924-77.90179-69.09368-141.60547-125.12871-197.58588-100.78924-100.691-215.75559-191.87966-350.66594-237.66545s-292.81266-40.443-410.07406 40.47c-22.748 15.69665-44.20986 34.60564-56.8507 59.18343s-15.08814 55.72937-.71025 79.33307c13.95334 22.90673 40.33229 34.69459 65.47958 44.0234s51.92591 18.35216 69.65769 38.47661c20.81341 23.6219 21.49092 61.50945-8.11362 76.11642-35.11339 17.32502-69.77317 29.73324-92.81626 63.80586z" fill="#e1dfea"/><path d="m465.97047 721.31007a679.697 679.697 0 0 1 88.98191 4.64618c2.74932.32533 5.96913 1.00165 7.07742 3.53864 1.003 2.29591-.40982 5.07135-2.51246 6.43371s-4.69988 1.65784-7.19319 1.904a689.8594 689.8594 0 0 1 -122.69382 1.14033c-4.55085-.364-10.42049-2.1034-10.464-6.66858-.03934-4.12464 4.85806-6.23354 8.88636-7.12067a182.053 182.053 0 0 1 58.03019-3.25924" fill="#e1dfea"/><path d="m280.28348 149.98889a9.01024 9.01024 0 0 0 -11.274-8.71525 16.92082 16.92082 0 0 0 -32.9852-4.46036 11.47923 11.47923 0 1 0 -4.1555 22.17986h40.479v-.06528a9.00392 9.00392 0 0 0 7.9357-8.93897z" fill="#fff"/><path d="m347.23831 331.50987h-28.22056v45.90124h-44.88089v-45.90124h-120.70221v-42.50062l104.38224-139.40325h61.20086v144.50338h28.22056zm-73.10145-37.40049v-99.62248l-70.04121 99.62248z" fill="url(#a)"/><path d="m540.01691 415.45144c-18.02028 21.76048-41.48185 32.64073-70.72275 32.64073-29.23932 0-53.04049-10.88025-71.06076-32.64073-18.02028-22.10086-26.86062-50.661-26.86062-86.362 0-35.36059 8.84034-63.92152 26.86062-86.02159 18.02027-22.10086 41.82144-32.9811 71.06076-32.9811 29.2409 0 52.70247 10.88024 70.72275 32.9811 18.02028 22.10007 27.20021 50.661 27.20021 86.02159 0 35.701-9.17993 64.26114-27.20021 86.362zm-70.72275-9.8599c15.30042 0 27.881-7.14082 37.0609-21.08051 9.1815-13.94049 13.94048-32.64073 13.94048-55.42155s-4.759-41.48107-13.94048-55.42155c-9.17993-13.9397-21.76048-21.07973-37.0609-21.07973-15.29884 0-27.87939 7.14-37.06089 21.07973-9.17994 13.94048-13.93891 32.64072-13.93891 55.42155s4.759 41.48106 13.93891 55.42155c9.1815 13.93969 21.76205 21.08051 37.06089 21.08051z" fill="url(#b)"/><path d="m783.11142 331.50987h-28.22055v45.90124h-44.88087v-45.90124h-120.70381v-42.50062l104.38303-139.40325h61.20165v144.50338h28.22055zm-73.10142-37.40049v-99.62248l-70.042 99.62248z" fill="url(#c)"/><path d="m260.6946 474.66606c-6.81033 3.72413-12.81963 9.2241-16.17695 16.22255s-3.80541 15.56524-.25109 22.46571 11.38661 11.64852 19.08555 10.66055c3.02366-.388 6.13075-1.78067 7.60159-4.45082s.5342-6.682-2.3463-7.6799c-2.35058-.81432-4.90447.53907-6.76055 2.19536a19.81045 19.81045 0 0 0 21.28607 32.86159" fill="none" stroke="#1f171d" stroke-dasharray="3.16671 3.16671" stroke-miterlimit="10" stroke-width="1.0329"/><path d="m495.121 385.43475 2.898-.47273 1.80308 4.68756-2.38857.65368z" fill="#ffccba"/><path d="m499.87865 390.30762 5.6202-2.08264-5.01943-13.54538s-5.4191 2.62534-2.10089 11.57983z" fill="#7f3f98"/><path d="m496.49426 380.93675a6.3651 6.3651 0 0 0 4.65836 2.56342" fill="none" stroke="#fcfbfc" stroke-miterlimit="10" stroke-width=".38982"/><path d="m497.31944 383.08619a4.40426 4.40426 0 0 0 2.6356 1.73467" fill="none" stroke="#fcfbfc" stroke-miterlimit="10" stroke-width=".38982"/><path d="m505.467 388.26009s.56387.35008 1.17686-.42089c.17315-.21779-.4171-1.37592-.84708-2.53625s-1.06129-1.15583-1.05663-1.33747a5.6543 5.6543 0 0 0 -.319-2.21086c-.41155-1.30481-2.7129-6.884-2.7129-6.884s-.56464-.86472-1.10721-.36692c-.10267.09421-.18556.1173-.13947.2488.70843 2.02087 5.00543 13.50759 5.00543 13.50759z" fill="#001751"/><path d="m460.24206 398.20917c18.078-1.1848 37.73-7.06352 37.73-7.06352l-2.73241-5.75257s-14.22854 1.90464-25.85006 2.57637c-22.862 1.32144-22.42765-11.41328-20.47542-15.95877 10.86466-3.14934 25.8187-6.99336 36.68336-10.1427 3.583-1.03859 5.27156-2.02476 8.4798-.12119 2.22271 1.31881 10.63871 29.90631 10.63871 29.90631l8.09882-.966s.23368-10.2406-4.96355-31.21836c-.92091-3.71712-8.06518-17.252-11.66179-18.567-3.4615-1.26569-7.27347.09816-10.702 1.45053l-48.69809 19.20856c-4.486 1.76948-7.78791 5.67022-12.09432 7.81849 1.035 2.97758 4.14789 30.88768 35.54695 28.82985z" fill="#00aa8e"/><path d="m423.18011 371.867s25.93594-7.658 38.45994-14.50377c-1.25823-7.0195-4.971-11.18468-3.75459-16.45427 1.03526-4.485 2.52992-7.62787-3.3909-14.51027-2.92546-3.40048-5.6276-5.01051-9.43628-4.984-3.26394.02273-12.06834 1.32214-18.4312 13.55172-6.89908 13.2603-3.44697 36.90059-3.44697 36.90059z" fill="#7f3f98"/><path d="m464.82173 359.53321a45.04533 45.04533 0 0 0 26.79067-8.054c-5.952.455-7.021-.26243-12.973.19259-2.41235.18442-7.50252.528-12.32392.63132-1.35784-3.98863-4.53144-11.68665-4.53144-11.68665-.97524-.42141-4.09127-.17042-4.355.85874 0 0-.97486 6.05669.41571 10.45661 1.21542 3.84589 2.80979 7.49152 6.97698 7.60139z" fill="#ffccba"/><path d="m449.90928 321.80558s15.52338 6.86906 11.87472 18.81091l-8.03389 1.58415a134.37673 134.37673 0 0 1 -3.84083-20.39506z" fill="#7f3f98"/></g><path d="m452.501 348.313h29.184l12.276-29.744h-27.441z" fill="#9892a0"/><path d="m495.9794 346.54851a2.79948 2.79948 0 0 1 3.16461 2.97694 3.94223 3.94223 0 0 1 -3.17733 3.87349 2.80156 2.80156 0 0 1 -3.16936-2.98152 3.94153 3.94153 0 0 1 3.18208-3.86891zm-.01217 6.556a3.6093 3.6093 0 0 0 2.90908-3.54143 2.56635 2.56635 0 0 0 -2.89744-2.72541 3.60928 3.60928 0 0 0 -2.90883 3.54142 2.5613 2.5613 0 0 0 2.89719 2.72542" fill="#fff" transform="translate(-22.01009 -15.13763)"/><path d="m446.20583 345.334a21.23551 21.23551 0 0 0 1.67255-9.53074" fill="none" stroke="#1f171d" stroke-miterlimit="10" stroke-width=".46698" transform="translate(-22.01009 -15.13763)"/><path d="m477.39232 313.14486-.13692 3.90054a.78666.78666 0 0 1 -1.04818.71415l-1.62587-.57431z" fill="#f4a992" transform="translate(-22.01009 -15.13763)"/><path d="m455.90289 311.01984a7.04876 7.04876 0 0 0 .72283-3.51115c-.01486-4.26469 3.2563-9.02718 7.30791-10.35845a19.14341 19.14341 0 0 1 10.90914.18479 8.49811 8.49811 0 0 1 4.72983 2.64554 7.25855 7.25855 0 0 1 1.00429 5.51732c-.6263 3.99206-2.92421 7.52923-5.183 10.83832-1.39434 2.04268-2.86681 4.02909-4.39349 5.97483a5.90143 5.90143 0 0 1 -3.13534 2.49382c-1.71079.34779-3.29946-.85417-4.93805-1.4565a7.51912 7.51912 0 0 0 -6.02392.40327c-1.14094.60263.13449 5.886-1.98405 10.85114a1.2508 1.2508 0 0 1 -2.37136-.17754c-.88732-3.74937-2.97133-9.893-7.4894-13.01056a16.25223 16.25223 0 0 0 6.35-3.16389c2.43482-2.24963 3.25611-4.63431 4.49461-7.23094z" fill="#ffccba" transform="translate(-22.01009 -15.13763)"/><ellipse cx="470.66211" cy="313.32754" fill="#f4a992" opacity=".5" rx="1.9264" ry="1.75351" transform="matrix(.17120384 -.98523563 .98523563 .17120384 59.37142 708.26014)"/><path d="m475.288 305.48527a4.40835 4.40835 0 0 0 5.44947 2.23369c4.69846-1.29653 4.17719-8.02437-.61406-8.9191-1.80448-.337-3.21084-1.5592-4.69242-3.02042-9.921-9.78471-18.74965-1.52646-19.2957 7.57287-.349 5.8162-3.02185 6.96767-1.78983 8.94864a2.06745 2.06745 0 0 0 2.45024.50615 5.41865 5.41865 0 0 0 2.65759-4.58856c.10059-1.51558-.21241-3.41382 1.18017-4.13865a2.07192 2.07192 0 0 1 2.39125.44048 4.08136 4.08136 0 0 1 .76324 3.91465c-.624 2.75826-1.036 3.12086-2.63828 5.45107s-3.86655 8.1838 2.33315 11.32993c7.49933 3.80565 8.32259-2.47629 9.94975-6.11085 0 0-5.83741-.12574-7.02632-4.78989-.395-1.54966-.88521-6.08536 1.03086-9.39608 3.55169-6.13691 6.48499-2.32889 7.85089.56607z" fill="#1f0330" transform="translate(-22.01009 -15.13763)"/><path d="m439.28969 348.31284h26.8596v1.39342h-26.8596z" fill="#cdc9d3"/><path d="m452.5011 348.31284h29.18352v1.39342h-29.18352z" fill="#9892a0"/><path d="m484.71673 367.73317a8.41125 8.41125 0 0 0 4.54091-3.25273.79523.79523 0 0 0 -1.181-1.02045 7.209 7.209 0 0 1 -5.00144 1.897 2.17109 2.17109 0 0 1 -.85173-.29323" fill="#e5aa98" transform="translate(-22.01009 -15.13763)"/><path d="m435.03044 362.353c1.39856 4.58383 3.313 8.96507 7.31482 11.6019 3.92571 2.58669 11.39189 1.41581 15.98948.4338a87.25436 87.25436 0 0 0 17.82329-6.39317c2.88379-1.63991 5.54371 1.69811 9.95669.22712a8.41118 8.41118 0 0 0 4.54091-3.25273.79523.79523 0 0 0 -1.181-1.02045 7.20892 7.20892 0 0 1 -5.00144 1.897 2.1712 2.1712 0 0 1 -.85173-.29323.752.752 0 0 1 .027-1.313 15.67288 15.67288 0 0 0 1.85649-1.29287.50418.50418 0 0 0 -.41278-.89151c-1.52264.32072-3.74036.7958-6.10276 1.32852-10.58888 2.3878-19.02877.6279-30.89559 1.76846-.65125-7.27637-.85671-11.97709-2.52927-19.3244a73.7191 73.7191 0 0 0 -13.04721 2.36855s.80343 4.60985.988 6.26789a43.437 43.437 0 0 0 1.5251 7.88812z" fill="#ffccba" transform="translate(-22.01009 -15.13763)"/><path d="m462.635 349.706h19.05v-1.921h-16.277z" fill="#9892a0"/><path d="m505.02064 394.05993.3116 5.72875 17.13017-.751s-.86477-5.69866-9.9922-5.20219z" fill="#7f3f98" transform="translate(-22.01009 -15.13763)"/><path d="m517.87072 393.621a6.09278 6.09278 0 0 0 -3.66379 3.53279" fill="none" stroke="#fcfbfc" stroke-miterlimit="10" stroke-width=".38982" transform="translate(-22.01009 -15.13763)"/><path d="m515.67163 393.76634a4.21586 4.21586 0 0 0 -2.33286 1.9182" fill="none" stroke="#fcfbfc" stroke-miterlimit="10" stroke-width=".38982" transform="translate(-22.01009 -15.13763)"/><path d="m505.30915 399.74964s-.47987.41636.05135 1.19528c.15005.22 4.69938.00854 5.88213-.05579s1.35752-.64283 1.52228-.5871a5.41215 5.41215 0 0 0 2.11179.33481c1.30962-.00654 7.06288-.52972 7.06288-.52972s.95061-.27122.64922-.90836c-.057-.12057-.05467-.2029-.188-.198-2.04843.07503-17.09165.74888-17.09165.74888z" fill="#461f59" transform="translate(-22.01009 -15.13763)"/><path d="m482.706 376.515.305 2.407 6.787-.159v-3.093z" fill="#ffccba"/><path d="m462.28753 297.57978s3.52083-5.04114 8.71435-1.21261" fill="none" stroke="#fcfbfc" stroke-miterlimit="10" stroke-width=".46698" transform="translate(-22.01009 -15.13763)"/><path d="m810.17815 666.61792c-1.32717.59706-2.8266 1.54768-2.80982 3.00285.01858 1.6097 1.84828 2.49882 3.40338 2.91487 8.02392 2.14671 16.47987 1.75962 24.77432 1.31943 2.71714-.1442 5.53793-.32074 7.92611-1.6255 10.481-5.72686-1.84774-10.00145-7.28323-10.19974-9.00915-.32866-17.72491.86046-26.01076 4.58809z" fill="#d9d7e0" transform="translate(-22.01009 -15.13763)"/><path d="m824.3174 585.57047a93.79056 93.79056 0 0 1 -3.20232-40.19136c.86948-6.26182 2.64667-12.89 7.5063-16.93354s13.58152-3.76409 16.35571 1.91661c1.91753 3.92652.391 8.64358-1.65049 12.50708s-4.64844 7.66427-4.92674 12.02512c-.41915 6.568 4.44493 12.08941 7.85778 17.71671 3.56351 5.87569 5.757 12.80786 4.90529 19.62673s-5.13636 13.40287-11.55123 15.867-14.6941-.10961-17.66693-6.30514c-3.99011-8.31557 2.17309-18.7786-1.4852-27.24539" fill="#086654" transform="translate(-22.01009 -15.13763)"/><path d="m794.323 630.652h18.648l-2.268 20.412h-13.608z" fill="#7f3f98"/><path d="m809.74455 547.74148c.78931 3.925 3.47114 7.29634 4.10374 11.2496 1.32831 8.30087-6.58859 15.56629-6.69947 23.972-.07519 5.70029 3.43105 10.75549 5.085 16.21108 2.06136 6.79947 1.20363 14.08938.53213 21.16265-.49276 5.1905-.62027 11.12215 3.0891 14.78612a12.3522 12.3522 0 0 0 8.37 3.15079 18.798 18.798 0 0 0 19.22787-20.91053c-.83509-7.35561-5.9412-13.85463-6.04035-21.25683-.07587-5.66482 2.82041-11.3257 1.43115-16.818-1.45242-5.742-7.18394-9.54854-8.98877-15.18971-1.49112-4.66064-.05449-9.67919 1.0067-14.4561s1.6159-10.21043-1.25571-14.17261a9.74451 9.74451 0 0 0 -7.90263-3.956c-7.39912.114-13.33225 9.39754-11.95876 16.22754z" fill="#00aa8e" transform="translate(-22.01009 -15.13763)"/><path d="m819.69667 546.92569a296.65951 296.65951 0 0 1 6.18645 97.0717" fill="none" stroke="#1f171d" stroke-miterlimit="10" stroke-width=".88057" transform="translate(-22.01009 -15.13763)"/><path d="m794.3228 634.99886h18.64817" fill="none" stroke="#fcfbfc" stroke-miterlimit="10" stroke-width=".88057"/><path d="m358.663 200.588-11.399-25.67-27.792 53.923z" fill="#7f3f98"/><path d="m352.709 186.481-32.254 41.652-.983.708.864-1.676 31.83-41.104z" fill="#461f59"/><path d="m357.14 197.21 7.226-7.728-12.55-4.261z" fill="#461f59"/><path d="m389.877 189.805a117.13327 117.13327 0 0 1 39.01-26.66831c5.05891-2.11416 10.43311-3.89586 15.90652-3.5733s11.08833 3.15272 13.372 8.13739c2.59518 5.66451-.40343 13.30271-6.27264 15.39413s-13.20774-2.2499-13.90356-8.44163c-.94667-8.424 8.318-14.09269 16.369-16.74618a141.20186 141.20186 0 0 1 57.12354-6.46232" fill="none" stroke="#1f171d" stroke-dasharray="3.16671 3.16671" stroke-miterlimit="10" stroke-width="1.0329" transform="translate(-22.01009 -15.13763)"/><path d="m297.98588 691.27509c-2.03347.91482-4.33088 2.37135-4.30516 4.60094.02846 2.46636 2.8319 3.82866 5.21462 4.46613 12.29415 3.28915 25.25024 2.69606 37.95889 2.02161 4.16319-.22094 8.48516-.49144 12.1443-2.49056 16.05878-8.77464-2.83109-15.32411-11.15928-15.62793-13.80371-.50356-27.15792 1.31839-39.85337 7.02981z" fill="#d9d7e0" transform="translate(-22.01009 -15.13763)"/><path d="m338.7029 664.796a6.96165 6.96165 0 0 0 5.17128 2.525 15.09083 15.09083 0 0 0 13.78925-6.56424c2.747-4.16433 3.33832-10.2977.8745-14.752-2.0788-3.75819-6.84912-3.97529-10.71988-2.73725-6.37964 2.04049-13.07037 15.80233-9.11515 21.52849z" fill="#00aa8e" transform="translate(-22.01009 -15.13763)"/><path d="m321.02136 668.85523c2.22242 1.77869 5.55641 2.3691 7.95356.834 2.84385-1.82116 3.40567-5.68773 3.5045-9.06327a63.64642 63.64642 0 0 0 -.77394-12.75208c-.78764-4.53488-2.954-10.09661-8.36265-10.29026a6.24617 6.24617 0 0 0 -6.7049 5.18953c-1.61982 7.45458-2.11962 20.8771 4.38343 26.08208z" fill="#0bce9a" transform="translate(-22.01009 -15.13763)"/><path d="m269.73638 641.19183a7.90238 7.90238 0 0 0 1.59289 6.17072 23.42644 23.42644 0 0 0 4.758 4.49285l19.75786 15.43408c1.54888 1.20992 3.261 2.47852 5.22642 2.46867 3.52641-.01766 5.65959-4.08344 5.78919-7.60751.23212-6.31181-3.33669-12.283-8.08322-16.44995-4.91313-4.31319-26.04243-18.16069-29.04114-4.50886z" fill="#00aa8e" transform="translate(-22.01009 -15.13763)"/><path d="m327.02466 696.07893a150.97043 150.97043 0 0 0 -2.92787-43.04731" fill="none" stroke="#1f171d" stroke-miterlimit="10" stroke-width=".75592" transform="translate(-22.01009 -15.13763)"/><path d="m277.99016 642.98122a159.42586 159.42586 0 0 1 46.48366 50.54687" fill="none" stroke="#1f171d" stroke-miterlimit="10" stroke-width=".75592" transform="translate(-22.01009 -15.13763)"/><path d="m332.96286 689.48391a69.17223 69.17223 0 0 0 14.83114-30.21835" fill="none" stroke="#1f171d" stroke-miterlimit="10" stroke-width=".75592" transform="translate(-22.01009 -15.13763)"/><path d="m480.02187 509.48763a8.76826 8.76826 0 0 1 5.91872-11.03062c3.25784-.79265 6.69665.42874 9.53416 2.2149s5.28939 4.13016 8.111 5.94134a25.99274 25.99274 0 0 0 33.35688-4.48113" fill="none" stroke="#1f171d" stroke-miterlimit="10" stroke-width=".80495" transform="translate(-22.01009 -15.13763)"/><path d="m432.38901 482.81324v-52.10237" fill="none" stroke="#1f171d" stroke-miterlimit="10" stroke-width=".80495"/><path d="m418.766 501.93639h84.32383a11.50337 11.50337 0 0 1 11.50337 11.50337 0 0 0 0 1 0 0h-95.8272a0 0 0 0 1 0 0v-11.50337a0 0 0 0 1 0 0z" fill="#0d9b80" transform="matrix(.74942114 .66209362 -.66209362 .74942114 431.06703 -196.90729)"/><path d="m435.58483 487.89153a11.50337 11.50337 0 0 0 -17.24174-15.23262" fill="#086654" transform="translate(-22.01009 -15.13763)"/><path d="m453.77054 486.11438h.48795a2.3215 2.3215 0 0 1 2.3215 2.3215 0 0 0 0 1 0 0h-5.13099a0 0 0 0 1 0 0 2.32149 2.32149 0 0 1 2.32154-2.3215z" fill="#086654" transform="matrix(.74942114 .66209362 -.66209362 .74942114 414.37815 -193.63689)"/><path d="m479.82558 509.13332h.48795a2.3215 2.3215 0 0 1 2.3215 2.3215 0 0 0 0 1 0 0h-5.13094a0 0 0 0 1 0 0 2.32149 2.32149 0 0 1 2.32149-2.32149z" fill="#086654" transform="matrix(.74942114 .66209362 -.66209362 .74942114 436.14768 -205.11971)"/><path d="m299.28895 417.66248h73.02587v107.22786h-73.02587z" fill="#00aa8e" transform="matrix(.74942114 .66209362 -.66209362 .74942114 374.16391 -119.378)"/><path d="m331.2272 437.145h36.51294v92.43781h-36.51294z" fill="url(#d)" opacity=".48" transform="matrix(.74942114 .66209362 -.66209362 .74942114 385.59533 -125.40775)"/><path d="m336.9352 511.1445h209.35721v107.22786h-209.35721z" fill="#0d9b80" transform="matrix(.74942114 .66209362 -.66209362 .74942114 462.572 -166.01078)"/><path d="m332.33829 430.17048h73.02587v7.39503h-73.02587z" fill="#086654" transform="matrix(.74942114 .66209362 -.66209362 .74942114 357.6775 -150.63352)"/><path d="m369.98454 523.65251h209.35721v7.39503h-209.35721z" fill="#075143" transform="matrix(.74942114 .66209362 -.66209362 .74942114 446.08559 -197.2663)"/><path d="m303.88585 598.46934h209.35721v7.39503h-209.35721z" fill="#075143" transform="matrix(.74942114 .66209362 -.66209362 .74942114 479.05841 -134.75525)"/><path d="m311.39344 453.87787h73.02587v7.39503h-73.02587z" fill="#086654" transform="matrix(.74942114 .66209362 -.66209362 .74942114 368.12568 -130.8255)"/><path d="m287.99463 480.36289h73.02587v7.39503h-73.02587z" fill="#086654" transform="matrix(.74942114 .66209362 -.66209362 .74942114 379.79799 -108.69671)"/><path d="m266.2396 504.98732h73.02587v7.39503h-73.02587z" fill="#086654" transform="matrix(.74942114 .66209362 -.66209362 .74942114 390.65032 -88.12248)"/><g fill="#178e77"><path d="m361.58265 453.41466h12.63317v92.43781h-12.63317z" transform="matrix(.74942114 .66209362 -.66209362 .74942114 400.98192 -133.52375)"/><path d="m375.12973 465.38315h12.63317v92.43781h-12.63317z" transform="matrix(.74942114 .66209362 -.66209362 .74942114 412.30079 -139.49413)"/><path d="m388.67681 477.35163h12.63317v92.43781h-12.63317z" transform="matrix(.74942114 .66209362 -.66209362 .74942114 423.61966 -145.46452)"/><path d="m402.22389 489.32012h12.63317v92.43781h-12.63317z" transform="matrix(.74942114 .66209362 -.66209362 .74942114 434.93854 -151.4349)"/><path d="m415.77097 501.28861h12.63317v92.43781h-12.63317z" transform="matrix(.74942114 .66209362 -.66209362 .74942114 446.25741 -157.40529)"/><path d="m429.31805 513.2571h12.63317v92.43781h-12.63317z" transform="matrix(.74942114 .66209362 -.66209362 .74942114 457.57628 -163.37568)"/><path d="m442.86513 525.22558h12.63317v92.43781h-12.63317z" transform="matrix(.74942114 .66209362 -.66209362 .74942114 468.89515 -169.34606)"/><path d="m456.41222 537.19407h12.63317v92.43781h-12.63317z" transform="matrix(.74942114 .66209362 -.66209362 .74942114 480.21403 -175.31645)"/><path d="m469.9593 549.16256h12.63317v92.43781h-12.63317z" transform="matrix(.74942114 .66209362 -.66209362 .74942114 491.5329 -181.28684)"/><path d="m483.50638 561.13104h12.63317v92.43781h-12.63317z" transform="matrix(.74942114 .66209362 -.66209362 .74942114 502.85177 -187.25722)"/><path d="m497.05346 573.09953h12.63317v92.43781h-12.63317z" transform="matrix(.74942114 .66209362 -.66209362 .74942114 514.17064 -193.22761)"/><path d="m510.86615 584.36621h10.5132v92.43781h-10.5132z" transform="matrix(.74942114 .66209362 -.66209362 .74942114 524.8258 -198.8479)"/></g><path d="m330.78367 466.56593h10.6817v6.98419h-10.6817z" fill="#086654" transform="matrix(.74942114 .66209362 -.66209362 .74942114 373.43807 -119.89692)"/><path d="m317.96013 405.99747h1.64334v97.88447h-1.64334z" fill="#f8fdff" transform="matrix(.74942114 .66209362 -.66209362 .74942114 359.0826 -112.20275)"/><path d="m324.88762 412.11772h1.64334v97.88447h-1.64334z" fill="#f8fdff" transform="matrix(.74942 .66209 -.66209 .74942 364.87066 -115.25578)"/><path d="m345.84326 430.63147h1.64334v97.88447h-1.64334z" fill="#f8fdff" transform="matrix(.74942114 .66209362 -.66209362 .74942114 382.37954 -124.49123)"/><path d="m352.77074 436.75172h1.64334v97.88447h-1.64334z" fill="#f8fdff" transform="matrix(.74942114 .66209362 -.66209362 .74942114 388.1676 -127.54426)"/><path d="m346.64858 418.55904h5.55069v3.69751h-5.55069z" fill="#f8fdff" transform="matrix(.66209362 -.74942114 .74942114 .66209362 -219.00001 388.78648)"/><path d="m353.50075 424.61275h5.55069v3.69751h-5.55069z" fill="#f8fdff" transform="matrix(.66209362 -.74942114 .74942114 .66209362 -221.2214 395.96723)"/><path d="m284.22496 489.21607h5.55069v3.69751h-5.55069z" fill="#f8fdff" transform="matrix(.66209362 -.74942114 .74942114 .66209362 -293.04521 365.88037)"/><path d="m291.07713 495.26978h5.55069v3.69751h-5.55069z" fill="#f8fdff" transform="matrix(.66209362 -.74942114 .74942114 .66209362 -295.2666 373.06111)"/><path d="m374.49404 443.15978h5.55069v3.69751h-5.55069z" fill="#f8fdff" transform="matrix(.66209362 -.74942114 .74942114 .66209362 -228.02716 417.96721)"/><path d="m381.34621 449.21349h5.55069v3.69751h-5.55069z" fill="#f8fdff" transform="matrix(.66209362 -.74942114 .74942114 .66209362 -230.24855 425.14795)"/><path d="m312.07043 513.81681h5.55069v3.69751h-5.55069z" fill="#f8fdff" transform="matrix(.66209362 -.74942114 .74942114 .66209362 -302.07236 395.06109)"/><path d="m318.9226 519.87052h5.55069v3.69751h-5.55069z" fill="#f8fdff" transform="matrix(.66209362 -.74942114 .74942114 .66209362 -304.29375 402.24184)"/><path d="m567.2171 329.08943c0 35.701-9.17993 64.26111-27.20021 86.362-18.02027 21.76048-41.48185 32.64072-70.72274 32.64072-2.34874 0-4.64932-.0962-6.9277-.23661l4.83768-42.32562c.69294.03026 1.38548.06161 2.09.06161 15.30041 0 27.881-7.14083 37.06089-21.08052 9.18151-13.94048 13.94048-32.64073 13.94048-55.42155z" fill="url(#e)" transform="translate(-22.01009 -15.13763)"/><path d="m803.82469 384.33365a10.987 10.987 0 0 0 -13.74729-10.62724 20.633 20.633 0 0 0 -40.22161-5.43888 13.99758 13.99758 0 1 0 -5.06714 27.04575h49.35944v-.0796a10.97923 10.97923 0 0 0 9.6766-10.90003z" fill="#fcfbfc" transform="translate(-22.01009 -15.13763)"/><path d="m590.07223 231.82162a15.01649 15.01649 0 0 0 -18.78923-14.52486 28.20029 28.20029 0 0 0 -54.97323-7.43364 19.13131 19.13131 0 1 0 -6.92556 36.965h67.46244v-.10879a15.006 15.006 0 0 0 13.22558-14.89771z" fill="#fff" transform="translate(-22.01009 -15.13763)"/></svg>